<?xml version="1.0" encoding="utf-8"?>
<!-- Generator: Adobe Illustrator 23.1.0, SVG Export Plug-In . SVG Version: 6.00 Build 0)  -->
<svg version="1.1" id="图层_1" xmlns="http://www.w3.org/2000/svg" xmlns:xlink="http://www.w3.org/1999/xlink" x="0px" y="0px"
	 viewBox="0 0 850.39 850.39" style="enable-background:new 0 0 850.39 850.39;" xml:space="preserve">
<style type="text/css">
	.st0{fill:#232229;}
	.st1{fill:#2BAF68;}
	.st2{fill:#FFFFFF;}
	.st3{fill:#FFFFFF;stroke:#FFFFFF;stroke-width:1.4563;stroke-miterlimit:10;}
</style>
<rect class="st0" width="850.39" height="850.39"/>
<g>
	<g>
		<g>
			<path class="st2" d="M154.06,680.04l24.79-83.4l22.5-13.38h55.83l14.38,13.38l-8.33,27.85h-36.87l3.54-13.53h-17.71l-16.67,54.76
				h17.71l4.79-13.53h36.88l-8.33,27.85l-22.5,13.38h-55.83L154.06,680.04z"/>
			<path class="st2" d="M261.97,680.04l24.79-83.4l22.5-13.38h55.83l14.38,13.38l-8.33,27.85h-36.87l3.54-13.53h-17.71l-16.67,54.76
				h17.71l4.79-13.53h36.88l-8.33,27.85l-22.5,13.38h-55.83L261.97,680.04z"/>
			<path class="st2" d="M365.72,693.42l33.33-110.15h73.33l14.38,13.38l-25,83.4l-22.5,13.38H365.72z M410.72,665.72h18.96
				l16.67-54.76h-18.96L410.72,665.72z"/>
			<path class="st2" d="M473.01,693.42l28.33-96.77l23.75-13.38h54.58l14.17,13.38l-28.54,96.77h-36.67l8.33-27.85h-18.96
				l-8.33,27.85H473.01z M552.38,611.12h-17.71l-8.33,27.69h18.96L552.38,611.12z"/>
			<path class="st2" d="M580.09,680.04l25-83.4l22.5-13.38h54.58l14.17,13.38l-24.79,83.4l-22.5,13.38h-54.79L580.09,680.04z
				 M639.46,665.72l16.67-54.76h-18.96l-16.67,54.76H639.46z"/>
		</g>
	</g>
	<path class="st3" d="M610.11,218.42c1.63-2.37,1.73-5.6-0.02-8.09c-1.75-2.51-4.83-3.52-7.63-2.78
		c-5.47-7.25-11.48-14.17-18.01-20.7c-8.25-8.25-17.1-15.66-26.46-22.21c0.66-2.83-0.46-5.89-3.04-7.57
		c-2.58-1.67-5.83-1.45-8.14,0.3c-13.7-8.25-28.31-14.75-43.58-19.37c-0.29-2.85-2.29-5.35-5.22-6.14c-2.94-0.79-5.94,0.4-7.61,2.74
		c-14.32-3.29-29.11-4.99-44.16-4.99c-15.05,0-29.84,1.7-44.16,4.99c-1.67-2.34-4.67-3.52-7.61-2.74c-2.93,0.78-4.93,3.29-5.22,6.14
		c-28.28,8.57-54.34,23.57-76.42,44.22c-2.63-1.23-5.86-0.77-8.03,1.4c-2.17,2.17-2.63,5.4-1.4,8.03
		c-8.72,9.32-16.43,19.35-23.07,29.95c-2.84-0.47-5.79,0.81-7.32,3.44c-1.52,2.63-1.16,5.82,0.66,8.03
		c-8.64,16.16-14.93,33.47-18.7,51.5c-2.83,0.52-5.18,2.74-5.71,5.74c-0.53,3.01,0.93,5.91,3.43,7.36
		c-1.24,8.9-1.89,17.94-1.9,27.08c0,0.67,0.27,1.32,0.74,1.79c0.48,0.48,1.12,0.74,1.79,0.74h34.32c0.94,2.81,3.59,4.84,6.72,4.84
		c3.92,0,7.09-3.18,7.09-7.09c0-2.97-1.82-5.5-4.4-6.56c0.58-13.28,2.89-26.12,6.74-38.29c2.8-0.11,5.38-1.87,6.4-4.66
		c1.01-2.78,0.17-5.79-1.89-7.67c11.81-28.35,32.1-52.32,57.69-68.69c2.21,1.68,5.29,1.97,7.85,0.5c2.56-1.48,3.85-4.31,3.49-7.06
		c18.8-9.83,39.94-15.77,62.33-16.74c1.06,2.59,3.6,4.41,6.56,4.41c2.97,0,5.51-1.82,6.56-4.41c31.62,1.38,60.71,12.63,84.28,30.74
		c-0.82,2.65-0.04,5.64,2.22,7.54c2.25,1.89,5.34,2.14,7.8,0.88c29.77,27.32,48.47,66.52,48.47,110.02
		c0,82.34-66.99,149.34-149.33,149.34c-18.18,0-35.89-3.22-52.71-9.57l33.15-57.42c0.96,0.15,1.96,0.12,2.95-0.15
		c3.78-1.01,6.03-4.9,5.02-8.69c-0.27-1-0.74-1.88-1.35-2.63l33.19-57.48c0.96,0.15,1.96,0.12,2.95-0.15c1-0.27,1.88-0.74,2.63-1.35
		l12.29,7.1c-0.15,0.96-0.12,1.96,0.15,2.95c1.01,3.78,4.9,6.03,8.69,5.02c1-0.27,1.88-0.74,2.63-1.35l73.13,42.22
		c0.58,0.34,1.27,0.43,1.92,0.25c0.65-0.17,1.2-0.6,1.54-1.18l7.09-12.27c0.01-0.03,0.02-0.05,0.04-0.08
		c0.01-0.02,0.02-0.03,0.03-0.05c0.02-0.03,0.02-0.06,0.04-0.09c0.04-0.09,0.08-0.18,0.1-0.27c0.02-0.05,0.03-0.11,0.05-0.16
		c0.02-0.09,0.04-0.18,0.05-0.28c0.01-0.05,0.02-0.1,0.02-0.15c0.01-0.12,0.01-0.24,0-0.35c0-0.02,0-0.05,0-0.07
		c-0.01-0.14-0.04-0.28-0.08-0.42c-0.01-0.04-0.03-0.08-0.04-0.12c-0.03-0.1-0.07-0.19-0.11-0.28c-0.02-0.05-0.05-0.09-0.07-0.14
		c-0.04-0.08-0.09-0.16-0.14-0.23c-0.03-0.05-0.07-0.1-0.11-0.14c-0.02-0.03-0.04-0.07-0.07-0.1l-78.2-89.04
		c0.8-1.52,1.06-3.34,0.58-5.14c-0.27-1-0.74-1.88-1.35-2.63l4.84-8.38c0.7-1.21,0.28-2.76-0.93-3.46l-35.54-20.52
		c-0.58-0.34-1.27-0.43-1.92-0.25c-0.65,0.17-1.2,0.6-1.54,1.18l-7.24,12.54l-25.98-5.19c-0.04-0.26-0.09-0.52-0.16-0.79
		c-1.01-3.78-4.9-6.03-8.69-5.02c-1.84,0.49-3.32,1.67-4.23,3.19l-81.85-16.34c-1.07-0.21-2.15,0.28-2.69,1.22l-7.09,12.27
		c-0.7,1.21-0.28,2.76,0.93,3.46l96.9,55.94c-0.15,0.96-0.12,1.96,0.15,2.95c0.27,1,0.74,1.88,1.35,2.64l-12.3,21.31
		c-0.81-0.08-1.65-0.02-2.49,0.21c-3.78,1.01-6.03,4.9-5.02,8.69c0.22,0.83,0.59,1.59,1.07,2.26l-95.28,165.03
		c-0.7,1.21-0.28,2.76,0.93,3.46l35.55,20.52c0.39,0.22,0.83,0.34,1.27,0.34c0.22,0,0.44-0.03,0.66-0.09
		c0.65-0.17,1.2-0.6,1.54-1.18l17.76-30.76c24.07,10.17,49.62,15.33,76,15.33c52.21,0,101.29-20.33,138.2-57.25
		c36.91-36.92,57.24-86,57.24-138.21C641.7,286.6,630.66,249.86,610.11,218.42z M598.29,210.59c-0.14,0.21-0.26,0.43-0.37,0.66
		l-47.21-4.44c-0.37-1.33-1.13-2.58-2.27-3.53c-0.32-0.27-0.67-0.5-1.02-0.71l5.15-32.61c0.88-0.19,1.73-0.54,2.49-1.05
		C571.56,180.45,586.16,194.53,598.29,210.59z M374.85,188.07c-2.22-1.84-5.43-2.22-8.08-0.69c-1.29,0.74-2.26,1.83-2.85,3.08
		l-41.06-3.32l46.35-14.78c1.71,2.13,4.57,3.18,7.38,2.43c2.1-0.56,3.73-2.02,4.58-3.84l35.16,2.58
		C401.82,176.36,387.88,181.26,374.85,188.07z M291.08,318.77l-28.17-24.76c0.15-0.4,0.26-0.81,0.34-1.24
		c0.08-0.43,0.11-0.86,0.1-1.28l34.94-13.63c0.21,0.23,0.43,0.44,0.66,0.64c-4.02,12.79-6.38,26.17-6.96,39.86
		C291.68,318.48,291.38,318.61,291.08,318.77z M260.01,285.52c3.75-17.66,9.95-34.41,18.23-49.9c0.63,0.08,1.27,0.08,1.9-0.01
		l18,32.9c-0.53,0.63-0.97,1.35-1.27,2.16c-0.3,0.82-0.43,1.65-0.42,2.47l-34.94,13.63C261.08,286.3,260.57,285.87,260.01,285.52z
		 M381.54,165.9c-0.19-0.64-0.47-1.24-0.81-1.78l13.71-18.58c1.18,0.33,2.46,0.36,3.73,0.02c0.8-0.21,1.53-0.56,2.17-1.01
		l36.82,25.42L381.54,165.9z M389.86,143.2l-13.21,17.91c-1.18-0.33-2.46-0.36-3.73-0.02c-3.03,0.81-5.08,3.48-5.24,6.45
		l-47.73,15.21C339.94,164.98,363.7,151.34,389.86,143.2z M308.06,195.5l1.58,14.01c-0.63,0.33-1.23,0.75-1.76,1.28
		c-1.34,1.34-2.03,3.08-2.07,4.84l-20.52,7.9c6.41-10.12,13.74-19.6,21.88-28.31C307.47,195.33,307.76,195.42,308.06,195.5z
		 M284.59,233.18c0.27-0.32,0.52-0.67,0.74-1.04c0.65-1.12,0.95-2.35,0.94-3.56l21.24-8.17c0.12,0.14,0.24,0.28,0.38,0.42
		c0.44,0.44,0.93,0.81,1.45,1.11l-7.1,43.5L284.59,233.18z M317.92,210.79c-0.93-0.93-2.05-1.54-3.24-1.85l-1.58-14.01
		c0.63-0.33,1.23-0.75,1.76-1.28c0.59-0.59,1.04-1.25,1.38-1.96l42.79,3.46l-40.99,15.77C318,210.88,317.96,210.83,317.92,210.79z
		 M547.22,168.97c0.11,0.07,0.22,0.13,0.33,0.19l-5.15,32.62c-0.02,0.01-0.05,0.01-0.07,0.02c-4.34-6.55-11.97-18.03-19.62-29.43
		c-6.82-10.16-12.31-18.26-16.34-24.08c-1.37-1.99-2.52-3.64-3.49-5.02c14.57,4.55,28.38,10.81,41.22,18.53
		C543.63,164.51,544.77,167.37,547.22,168.97z M491.82,144.3c0.73,0.57,1.58,1,2.52,1.25c1.33,0.36,2.67,0.3,3.9-0.07
		c6.94,9.77,22.09,32.34,35.22,52.11c-23.42-16.1-50.77-25.37-79.57-26.77C467.08,161.43,483.53,149.85,491.82,144.3z
		 M489.14,139.54c0.02,0.14,0.04,0.28,0.07,0.42c-3.87,2.56-10.02,6.8-20.03,13.84c-7.17,5.04-14.32,10.12-19.01,13.47
		c-1.12-0.75-2.47-1.18-3.92-1.18c-1.49,0-2.87,0.46-4.01,1.25l-39.02-26.95c0.07-0.28,0.11-0.56,0.15-0.84
		c13.79-3.19,28.15-4.88,42.89-4.88C460.99,134.66,475.35,136.35,489.14,139.54z M257.72,298.49c0.65-0.14,1.27-0.36,1.84-0.67
		l27.78,24.41H255.9C256.01,314.19,256.63,306.26,257.72,298.49z M337.17,215.77c-11.32,11.3-20.67,24.06-27.88,37.85l5.04-30.87
		c1.31-0.27,2.57-0.91,3.58-1.93c1.44-1.44,2.12-3.33,2.07-5.22l30.62-11.78C345.94,207.52,341.45,211.5,337.17,215.77z
		 M457.04,294.58c-0.49,1.02-0.74,2.15-0.7,3.32l-19.15,8.1c-0.94-0.98-2.15-1.67-3.47-1.99l-5.23-39.67L457.04,294.58z
		 M496.43,300.35l4.13,15.41c-2.31,1.68-3.47,4.65-2.69,7.58c0.27,1.02,0.76,1.93,1.4,2.69l-4.73,8.4L496.43,300.35z M498.3,343.59
		c-0.02-0.09-0.03-0.18-0.06-0.27c-0.27-1.02-0.76-1.93-1.4-2.69l6.83-12.12c0.93,0.14,1.91,0.1,2.88-0.16
		c0.35-0.09,0.68-0.22,1-0.36l19.42,19.74L498.3,343.59z M527.14,352.87c0.02,0.09,0.03,0.18,0.06,0.27
		c1.01,3.78,4.9,6.03,8.69,5.02c0.91-0.24,1.73-0.66,2.43-1.19l15.16,9.49l-40.35-15.61L527.14,352.87z M541.01,352.68
		c0.2-1.03,0.19-2.12-0.1-3.2c-1.01-3.78-4.9-6.03-8.69-5.02c-0.35,0.09-0.68,0.22-1,0.36l-20.05-20.38
		c0.66-1.45,0.84-3.13,0.4-4.78c-0.78-2.92-3.28-4.92-6.12-5.21l-5.42-20.22l63.98,72.85L541.01,352.68z M489.66,289.32
		c0.63,0.66,1.39,1.19,2.22,1.56l-2.65,47.53c-0.86,0.28-1.64,0.7-2.31,1.24l-12.3-7.1c0.15-0.96,0.12-1.96-0.15-2.95
		c-0.69-2.59-2.73-4.45-5.16-5.05l-2.56-20.63c2.39-1.27,3.85-3.8,3.75-6.5L489.66,289.32z M461.73,304.55l2.56,20.63
		c-2.02,1.07-3.38,3.04-3.69,5.26l-38.3,8.73l37.99-35.16C460.75,304.24,461.23,304.42,461.73,304.55z M433.91,317.76
		c3.25-0.87,5.36-3.87,5.25-7.1l11.92-5.04l-27.98,25.89l7.85-13.6C431.92,318.07,432.92,318.03,433.91,317.76z M420.65,344.75
		l41.09-9.37c0.12,0.18,0.25,0.36,0.39,0.53l-33.19,57.48c-0.09-0.01-0.18-0.03-0.27-0.04l-10.97-43.79
		C419.3,348.43,420.37,346.68,420.65,344.75z M569.33,387.23l-48.3-27.89l52.64,20.37L569.33,387.23z M458.65,266.35
		c1.06,0.25,2.2-0.21,2.77-1.2l6.89-11.92l31.15,17.99l-3.57,6.19c-0.96-0.15-1.96-0.12-2.95,0.15c-3.25,0.87-5.36,3.87-5.25,7.1
		l-19.15,8.09c-1.73-1.8-4.37-2.63-6.95-1.94c-0.3,0.08-0.59,0.18-0.87,0.3l-28.32-30L458.65,266.35z M337.82,242.22l80.17,16.01
		c0.03,0.17,0.06,0.34,0.11,0.51c0.7,2.6,2.76,4.48,5.21,5.07l5.39,40.87c-0.39,0.21-0.75,0.45-1.09,0.73l-94.7-54.68L337.82,242.22
		z M446.25,515.43c-26.44,0-52.03-5.32-76.06-15.8c-1.18-0.52-2.56-0.06-3.21,1.06l-17.62,30.52l-31.16-17.99l38.17-66.11
		l55.67-96.43c0.24,0.05,0.48,0.09,0.72,0.12l10.97,43.79c-2.37,1.66-3.58,4.68-2.79,7.64c0.27,1,0.74,1.88,1.35,2.63l-1.11,1.93
		l-33.52,58.04c-0.37,0.64-0.44,1.4-0.2,2.1c0.24,0.69,0.77,1.25,1.45,1.52c18.22,7.3,37.51,11,57.32,11
		c41.24,0,80.02-16.06,109.18-45.22c29.16-29.16,45.22-67.94,45.22-109.18c0-41.24-16.06-80.01-45.22-109.17
		c-1.33-1.33-2.69-2.63-4.07-3.91l46.09,4.34c0.21,0.75,0.54,1.49,1.02,2.17c1.7,2.42,4.63,3.46,7.35,2.86
		c19.48,29.86,30.81,65.49,30.81,103.72C636.63,430.02,551.23,515.43,446.25,515.43z"/>
</g>
</svg>
